<?xml version="1.0" ?><svg enable-background="new 0 0 32 32" height="32px" version="1.1" viewBox="0 0 32 32" width="32px" xml:space="preserve" xmlns="http://www.w3.org/2000/svg" xmlns:xlink="http://www.w3.org/1999/xlink"><g id="box"><rect fill="none" height="32" width="32"/></g><g id="_x31_"/><g id="_x32_"/><g id="_x33_"><g><path d="M21,27H9c-1.654,0-3-1.346-3-3V4c0-1.654,1.346-3,3-3h13.923l0.08,0.586l2.079,0.855L21.93,3.118    C19.652,3.606,18,5.66,18,8c0,2.757,2.243,5,5,5h1v11C24,25.654,22.654,27,21,27z M9,3C8.449,3,8,3.449,8,4v20    c0,0.551,0.449,1,1,1h12c0.552,0,1-0.449,1-1v-9.071c-3.388-0.487-6-3.408-6-6.929c0-1.927,0.801-3.714,2.11-5H9z"/></g><g><path d="M17,31H5c-1.654,0-3-1.346-3-3V8c0-0.552,0.448-1,1-1s1,0.448,1,1v20c0,0.551,0.449,1,1,1h12c0.553,0,1,0.448,1,1    S17.553,31,17,31z"/></g><g><path d="M23,15c-3.859,0-7-3.14-7-7c0-3.277,2.317-6.152,5.51-6.837C21.997,1.055,22.5,1,23,1c3.859,0,7,3.14,7,7S26.859,15,23,15    z M23,3c-0.355,0-0.714,0.039-1.065,0.117C19.652,3.606,18,5.66,18,8c0,2.757,2.243,5,5,5s5-2.243,5-5S25.757,3,23,3z"/></g><g><path d="M23,11c-0.553,0-1-0.448-1-1V6c0-0.552,0.447-1,1-1s1,0.448,1,1v4C24,10.552,23.553,11,23,11z"/></g><g><path d="M25,9h-4c-0.553,0-1-0.448-1-1s0.447-1,1-1h4c0.553,0,1,0.448,1,1S25.553,9,25,9z"/></g></g><g id="_x34_"/><g id="_x35_"/><g id="_x36_"/><g id="_x37_"/><g id="_x38_"/><g id="_x39_"/><g id="_x31_0"/><g id="_x31_1"/><g id="_x31_2"/><g id="_x31_3"/><g id="_x31_4"/><g id="_x31_5"/><g id="_x31_6"/><g id="_x31_7"/><g id="_x31_8"/><g id="_x31_9"/><g id="_x32_0"/><g id="_x32_1"/><g id="_x32_2"/><g id="_x32_3"/><g id="_x32_4"/><g id="_x32_5"/></svg>