<?xml version="1.0" ?><svg enable-background="new 0 0 32 32" height="32px" version="1.1" viewBox="0 0 32 32" width="32px" xml:space="preserve" xmlns="http://www.w3.org/2000/svg" xmlns:xlink="http://www.w3.org/1999/xlink"><g id="box"><rect fill="none" height="32" width="32"/></g><g id="_x31_"/><g id="_x32_"/><g id="_x33_"/><g id="_x34_"/><g id="_x35_"/><g id="_x36_"/><g id="_x37_"/><g id="_x38_"/><g id="_x39_"/><g id="_x31_0"/><g id="_x31_1"/><g id="_x31_2"><g><path d="M24,27H12c-1.654,0-3-1.346-3-3V4c0-1.654,1.346-3,3-3h12c1.654,0,3,1.346,3,3v20C27,25.654,25.654,27,24,27z M12,3    c-0.551,0-1,0.449-1,1v20c0,0.552,0.449,1,1,1h12c0.551,0,1-0.448,1-1V4c0-0.551-0.449-1-1-1H12z"/></g><g><path d="M20,31H8c-1.654,0-3-1.346-3-3V8c0-0.552,0.448-1,1-1s1,0.448,1,1v20c0,0.552,0.449,1,1,1h12c0.552,0,1,0.447,1,1    S20.552,31,20,31z"/></g></g><g id="_x31_3"/><g id="_x31_4"/><g id="_x31_5"/><g id="_x31_6"/><g id="_x31_7"/><g id="_x31_8"/><g id="_x31_9"/><g id="_x32_0"/><g id="_x32_1"/><g id="_x32_2"/><g id="_x32_3"/><g id="_x32_4"/><g id="_x32_5"/></svg>