<?xml version="1.0" ?><svg data-name="Layer 1" height="128" id="Layer_1" viewBox="0 0 128 128" width="128" xmlns="http://www.w3.org/2000/svg"><title/><g><path d="M94.79385,38.27788l-13.11718-3.957a2.799,2.799,0,1,0-1.61719,5.35937L93.204,43.645a4.89408,4.89408,0,0,1,3.33984,6.0625L83.34854,95.22307a4.856,4.856,0,0,1-6.043,3.30078L65.43838,95.08244a2.79875,2.79875,0,0,0-1.5625,5.375l11.90235,3.44922a10.45484,10.45484,0,0,0,12.957-7.15625L101.91885,51.27A10.49572,10.49572,0,0,0,94.79385,38.27788Z"/><path d="M75.75479,88.11369a10.3943,10.3943,0,0,0,2.418-7.66015l-4.043-47.17566a10.49412,10.49412,0,0,0-11.35156-9.5625L35.26651,26.07085A10.49414,10.49414,0,0,0,25.704,37.42241L29.747,84.602l.0039.03125A10.44834,10.44834,0,0,0,40.165,94.19572c.30468,0,.61328-.01171.92187-.03906l27.56641-2.36328A10.3726,10.3726,0,0,0,75.75479,88.11369Zm-35.17969.46485a4.809,4.809,0,0,1-3.53515-1.125,4.86315,4.86315,0,0,1-1.71485-3.32813l-4.043-47.17956A4.90084,4.90084,0,0,1,35.74307,31.649L63.25479,29.2935a4.851,4.851,0,0,1,5.29688,4.46094l4.043,47.21472a4.84735,4.84735,0,0,1-4.45312,5.25Z"/><path d="M59.90323,75.10594,46.5126,76.25438a2.8,2.8,0,0,0,.23438,5.58978c.082,0,.16015-.0039.24219-.01172L60.37979,80.684a2.7992,2.7992,0,1,0-.47656-5.57807Z"/><path d="M63.77432,64.3325l-23.34375,2a2.8,2.8,0,0,0,.23438,5.58985c.082,0,.16015-.00391.24218-.01172l23.34375-2a2.79923,2.79923,0,1,0-.47656-5.57813Z"/><path d="M45.86807,40.69194a4.80078,4.80078,0,1,0-4.80078,4.80072A4.80457,4.80457,0,0,0,45.86807,40.69194Z"/></g></svg>