<svg width="987" height="987" viewBox="0 0 987 987" fill="none" xmlns="http://www.w3.org/2000/svg">
<g clip-path="url(#clip0_74_17)">
<path d="M740.25 832.781H370.125C319.109 832.781 277.594 791.266 277.594 740.25V123.375C277.594 72.3594 319.109 30.8438 370.125 30.8438H740.25C791.266 30.8438 832.781 72.3594 832.781 123.375V740.25C832.781 791.266 791.266 832.781 740.25 832.781ZM370.125 92.5312C353.13 92.5312 339.281 106.38 339.281 123.375V740.25C339.281 757.276 353.13 771.094 370.125 771.094H740.25C757.245 771.094 771.094 757.276 771.094 740.25V123.375C771.094 106.38 757.245 92.5312 740.25 92.5312H370.125Z" fill="black"/>
<path d="M616.875 956.156H246.75C195.734 956.156 154.219 914.641 154.219 863.625V246.75C154.219 229.724 168.037 215.906 185.062 215.906C202.088 215.906 215.906 229.724 215.906 246.75V863.625C215.906 880.651 229.755 894.469 246.75 894.469H616.875C633.901 894.469 647.719 908.256 647.719 925.312C647.719 942.369 633.901 956.156 616.875 956.156Z" fill="black"/>
<path fill-rule="evenodd" clip-rule="evenodd" d="M547.522 264.939C552.173 262.354 557.827 262.354 562.478 264.939L701.061 341.975C701.178 342.04 701.294 342.106 701.409 342.174C706.112 344.943 709 349.995 709 355.455V509.545C709 515.142 705.968 520.298 701.078 523.016L562.478 600.062C557.758 602.686 552.011 602.641 547.334 599.955L408.921 523.013C404.032 520.296 401 515.141 401 509.544V355.455C401 349.995 403.887 344.941 408.59 342.172L408.812 342.169L408.921 341.985L547.522 264.939ZM555.002 414.872L448.112 355.454L555 296.036L661.89 355.455L555.002 414.872ZM431.8 381.642V500.477L539.6 560.402V441.567L431.8 381.642ZM570.4 441.567V560.403L678.2 500.479V381.642L570.4 441.567Z" fill="black"/>
</g>
<defs>
<clipPath id="clip0_74_17">
<rect width="987" height="987" fill="white"/>
</clipPath>
</defs>
</svg>
