<svg width="95" height="80" viewBox="0 0 95 80" fill="none" xmlns="http://www.w3.org/2000/svg">
<path d="M52.8791 46.7263C57.1772 38.223 66.0727 33.0142 75.0263 30.7235C75.6162 40.6012 75.7731 51.1997 70.8096 60.094C66.3459 68.072 57.6625 72.4112 49.11 74.4976C48.677 65.1218 49.0693 55.4396 52.8791 46.7263ZM47.1803 1C47.0902 1.28597 47.0612 1.58653 47.0234 1.88126C46.881 3.2119 46.8171 4.5513 46.7357 5.88778C46.5643 8.90507 46.3957 11.9253 46.1312 14.9338C45.9743 16.6992 45.7883 18.4647 45.5268 20.2155C45.2885 21.7825 45.0066 23.3495 44.5271 24.8611C43.8878 24.9049 43.2484 24.9632 42.6091 25.0216C42.3795 24.3709 42.2516 23.688 42.1209 23.0081C41.8332 21.4032 41.6356 19.7837 41.4496 18.1612C41.0602 14.7529 40.7783 11.3329 40.4586 7.91876C40.4063 7.41101 40.3627 6.90327 40.2842 6.40136C40.2087 6.62022 40.1912 6.85366 40.1564 7.08419C40.0634 7.80495 39.9907 8.52864 39.9181 9.25232C39.5141 13.2734 39.1509 17.3033 38.529 21.2981C38.3749 22.2669 38.2035 23.2299 37.9884 24.187C37.846 24.8027 37.6862 25.4155 37.4653 26.0108C36.8725 26.1947 36.2797 26.3931 35.7072 26.6411C35.4398 26.0167 35.2567 25.3601 35.0882 24.7035C34.7133 23.192 34.4692 21.6541 34.2512 20.1134C33.9781 18.1904 33.7834 16.2615 33.5218 14.3385C33.4463 13.8425 33.3881 13.3376 33.2399 12.8591C33.2312 12.8561 33.2109 12.8532 33.2021 12.8532C33.1324 13.0896 33.1004 13.3347 33.0627 13.5769C32.8796 14.9076 32.7575 16.244 32.6267 17.5805C32.2461 21.6921 31.9177 25.8124 31.6067 29.9298C33.8589 30.7877 35.9484 32.0688 37.7647 33.6562C40.2145 35.7951 42.1703 38.4798 43.5913 41.4037C44.8351 43.9541 45.6314 46.7029 46.1574 49.4868C46.4771 51.188 46.6863 52.9097 46.8345 54.6342C46.8926 55.2733 46.9333 55.9153 47.0089 56.5543C47.0408 56.7528 47.0467 56.9658 47.16 57.1379H47.221C47.3431 56.9045 47.3518 56.6331 47.3867 56.3763C47.4855 55.4134 47.5465 54.4475 47.6482 53.4874C47.965 50.3563 48.552 47.2369 49.5953 44.2605C50.4235 41.8968 51.5772 39.647 53.0361 37.6102C54.4339 35.658 56.1223 33.9101 58.0607 32.4948C59.5079 31.4385 61.0946 30.5659 62.7685 29.9298C62.5505 26.9709 62.3093 24.0149 62.0594 21.0589C62.042 20.8867 62.0245 20.7145 62.0274 20.5424C62.0245 20.5569 62.0158 20.5832 62.0129 20.5978C61.9228 19.3693 61.8008 18.1466 61.6845 16.921C61.5712 15.7917 61.4637 14.6624 61.3067 13.539C61.266 13.2939 61.2399 13.0429 61.1527 12.8095C60.9754 13.3581 60.9173 13.9329 60.8301 14.5019C60.5047 16.9881 60.2576 19.486 59.8421 21.9605C59.6474 23.1073 59.4265 24.2512 59.1068 25.3718C58.979 25.8036 58.8453 26.2326 58.6651 26.6441C58.0926 26.3989 57.5027 26.1976 56.9099 26.0167C56.5553 25.0654 56.3461 24.0674 56.1514 23.0752C55.8608 21.5549 55.6428 20.02 55.4452 18.4851C55.0151 15.141 54.7129 11.7823 54.3699 8.4265C54.3147 7.92168 54.2624 7.41685 54.1927 6.91494C54.1665 6.74861 54.152 6.57936 54.091 6.41887C53.9689 7.1513 53.9224 7.89541 53.8469 8.63661C53.5185 12.2229 53.2133 15.8151 52.7803 19.3926C52.667 20.3089 52.5449 21.2223 52.3996 22.1356C52.2369 23.1103 52.08 24.0937 51.7632 25.0333C51.1239 24.9632 50.4816 24.9166 49.8423 24.8669C49.357 23.332 49.0751 21.7446 48.8339 20.1543C48.3428 16.7868 48.0957 13.3902 47.8749 9.99643C47.7441 7.92168 47.6395 5.84401 47.5058 3.76925C47.4477 2.99013 47.4012 2.20808 47.2879 1.43479C47.2588 1.28889 47.2501 1.13423 47.1774 1.00292L47.1803 1ZM41.7896 46.948C45.6023 55.6614 45.9888 65.3436 45.5558 74.7194C37.0062 72.6329 28.3199 68.2938 23.8562 60.3157C18.8927 51.4214 19.0496 40.823 19.6395 30.9453C28.5931 33.2331 37.4915 38.4447 41.7896 46.948ZM17.954 51.2609C18.0208 51.7337 18.1807 52.7404 18.326 53.2569C19.0816 55.9415 20.0783 58.5211 21.3105 61.0365C25.2134 69.391 33.4782 75.1541 42.2691 77.2406C38.5755 78.7871 36.9219 79.0556 32.9842 78.9914C27.6138 78.9068 20.5782 76.4527 16.5852 73.3508C9.43922 67.9086 5.10337 59.8693 1 52.0722C6.51572 50.4059 12.3744 49.4809 17.9511 51.258L17.954 51.2609ZM77.046 51.2609C76.9792 51.7337 76.8193 52.7404 76.674 53.2569C75.9184 55.9415 74.9217 58.5211 73.6895 61.0365C69.7866 69.391 61.5218 75.1541 52.7309 77.2406C56.4245 78.7871 58.0781 79.0556 62.0158 78.9914C67.3862 78.9068 74.4247 76.4527 78.4148 73.3508C85.5608 67.9086 89.8966 59.8693 94 52.0722C88.4843 50.4059 82.6227 49.4809 77.0489 51.258L77.046 51.2609Z" fill="url(#paint0_linear_101_19)" stroke="black" stroke-width="2" stroke-linejoin="round"/>
<defs>
<linearGradient id="paint0_linear_101_19" x1="47.4971" y1="20.4352" x2="47.5" y2="79" gradientUnits="userSpaceOnUse">
<stop stop-color="#484E51"/>
<stop offset="1" stop-color="#A7C1D0"/>
</linearGradient>
</defs>
</svg>
